<?xml version="1.0" encoding="utf-8"?>
<!-- Generator: Adobe Illustrator 27.9.0, SVG Export Plug-In . SVG Version: 6.00 Build 0)  -->
<svg version="1.1" id="Capa_1" xmlns="http://www.w3.org/2000/svg" xmlns:xlink="http://www.w3.org/1999/xlink" x="0px" y="0px"
	 viewBox="0 0 770.6 1164.8" style="enable-background:new 0 0 770.6 1164.8;" xml:space="preserve">
<style type="text/css">
	.st0{fill:#FFFFFF;stroke:#000000;stroke-miterlimit:10;}
	.st1{fill:#0060DF;}
</style>
<rect x="158" y="154.8" class="st0" width="482.4" height="482.4"/>
<g>
	<path class="st1" d="M385.3,0C172.9,0,0,172.8,0,385.3c0,85.6,54.6,225.1,167,426.5C246.5,954.2,324.7,1073,328,1078l57.3,86.8
		l57.3-86.8c3.3-5,81.5-123.8,161-266.2c112.4-201.4,167-340.9,167-426.5C770.6,172.8,597.8,0,385.3,0z M385.3,582.4
		c-110.3,0-199.7-89.4-199.7-199.7S275,182.9,385.3,182.9S585,272.4,585,382.7S495.6,582.4,385.3,582.4z"/>
</g>
</svg>
